<?xml version="1.0" encoding="utf-8"?>
<!-- Generator: Adobe Illustrator 24.0.1, SVG Export Plug-In . SVG Version: 6.00 Build 0)  -->
<svg version="1.1" id="Camada_1" xmlns="http://www.w3.org/2000/svg" xmlns:xlink="http://www.w3.org/1999/xlink" x="0px" y="0px"
	 viewBox="0 0 40 40" enable-background="new 0 0 40 40" xml:space="preserve">
<g>
	<path fill="#FFFFFF" d="M20,31.8c-4.1,0-8.3,0-12.4,0c-1.1,0-1.8-0.5-2.1-1.4c-0.1-0.2-0.1-0.4-0.1-0.7c0-6.5,0-12.9,0-19.4
		c0-1.3,0.7-2.1,2-2.1c8.3,0,16.7,0,25,0c1.3,0,2.1,0.8,2.1,2.1c0,6.5,0,12.9,0,19.4c0,1.4-0.7,2.1-2.1,2.1
		C28.3,31.8,24.2,31.8,20,31.8z M30.8,15.4c-0.2,0.1-0.4,0.2-0.5,0.3c-3,1.7-6,3.4-9,5.1c-0.9,0.5-1.7,0.5-2.6,0c-3-1.8-6-3.5-9-5.2
		c-0.1-0.1-0.3-0.2-0.5-0.3c0,4.3,0,8.5,0,12.7c7.2,0,14.4,0,21.5,0C30.8,23.8,30.8,19.6,30.8,15.4z M11.2,12
		c0.2,0.1,0.2,0.2,0.3,0.2c2.7,1.6,5.5,3.2,8.2,4.8c0.3,0.2,0.4,0.1,0.6,0c2.7-1.5,5.5-3.1,8.2-4.6c0.1-0.1,0.2-0.1,0.4-0.3
		C23,12,17.2,12,11.2,12z"/>
</g>
</svg>
