<?xml version="1.0" encoding="utf-8"?>
<!-- Generator: Adobe Illustrator 24.0.1, SVG Export Plug-In . SVG Version: 6.00 Build 0)  -->
<svg version="1.1" id="Camada_1" xmlns="http://www.w3.org/2000/svg" xmlns:xlink="http://www.w3.org/1999/xlink" x="0px" y="0px"
	 viewBox="0 0 794 306" enable-background="new 0 0 794 306" xml:space="preserve">
<g>
	<path fill="#00D2A2" d="M168.5,169.9c5.6-7.4,8.4-16.1,8.4-25.8c0-12.1-4.3-22.4-12.7-30.9c-8.5-8.5-18.8-12.7-30.9-12.7H72.1v93.2
		c7.2,1.4,11.3,7,12.4,13.2c2.3-1.3,5.1-2.1,8.4-2.1c4,0,7.3,1.2,9.8,3v-20h34.9c3.6,0,6.7,1.3,9.3,3.8c2.6,2.6,3.8,5.6,3.8,9.3
		c0,3.6-1.3,6.7-3.8,9.3c-2.6,2.6-5.6,3.8-9.3,3.8h-30.1c1.3,3,1.8,6.4,1.5,9.7c1-0.2,2.1-0.3,3.2-0.3c11.5,0,16.9,9.5,16.2,18.4
		c0.3-0.7,0.7-1.3,1.2-1.9c2.6-4.4,7.2-7.5,13.8-7.5c6.7,0,11.3,3.2,13.9,7.6c4.1-2,7.9-4.7,11.3-8.2c8.5-8.5,12.7-18.8,12.7-30.9
		C181.3,188.7,177,178.4,168.5,169.9z M142.5,153.3c-2.6,2.6-5.6,3.8-9.3,3.8h-30.6V131h30.6c3.6,0,6.7,1.3,9.3,3.8
		c2.6,2.6,3.8,5.6,3.8,9.3C146.4,147.7,145.1,150.8,142.5,153.3z"/>
	<path fill="#00D2A2" d="M307.6,144.9c11.9,11.9,17.9,26.3,17.9,43.2c0,16.9-6,31.3-17.9,43.2c-11.9,11.9-26.3,17.9-43.2,17.9
		c-16.9,0-31.3-6-43.2-17.9c-11.9-11.9-17.9-26.3-17.9-43.2c0-16.9,6-31.3,17.9-43.2c11.9-11.9,26.3-17.9,43.2-17.9
		C281.2,127,295.6,133,307.6,144.9z M264.3,157.6c-8.5,0-15.7,3-21.7,8.9c-5.9,5.9-8.9,13.2-8.9,21.7c0,8.4,3,15.6,8.9,21.6
		c5.9,6,13.2,9,21.7,9c8.4,0,15.6-3,21.6-9c6-6,9-13.2,9-21.6c0-8.5-3-15.7-9-21.7C279.9,160.5,272.7,157.6,264.3,157.6z"/>
	<path fill="#00D2A2" d="M409.1,157.1c-8.5,0-15.7,3-21.7,8.9c-1.7,1.7-3.3,3.7-4.5,5.8v72.7h-30.6V130.9h30.6v1.4
		c7.9-3.8,16.6-5.8,26.2-5.8V157.1z"/>
	<path fill="#00D2A2" d="M508.7,243.1c-8,3.8-16.8,5.8-26.2,5.8c-16.9,0-31.3-6-43.2-17.9c-11.9-11.9-17.9-26.3-17.9-43.2
		c0-16.9,6-31.3,17.9-43.2c11.9-11.9,26.3-17.9,43.2-17.9c9.5,0,18.3,1.9,26.2,5.8V131h30.6v111.4c0,16.3-5.8,30.2-17.3,41.7
		c-11.5,11.5-25.4,17.2-41.6,17.2v-30.6c7.8,0,14.4-2.7,19.8-8.1C505.7,257.2,508.5,250.7,508.7,243.1z M508.7,203.5v-31.6
		c-1.3-2.1-2.8-4-4.5-5.8c-6.1-5.9-13.3-8.9-21.7-8.9c-8.5,0-15.7,3-21.7,8.9c-5.9,5.9-8.9,13.2-8.9,21.7c0,8.4,3,15.6,8.9,21.6
		c5.9,6,13.2,9,21.7,9c8.4,0,15.6-3,21.7-9.1C506,207.5,507.5,205.6,508.7,203.5z"/>
	<g>
		<path fill="#FF4691" d="M130.4,241.8c0,0,0.1-0.1,0.1-0.1C130.5,241.7,130.4,241.7,130.4,241.8L130.4,241.8z"/>
		<path fill="#FF4691" d="M152.9,266.5c1.4-4.4,3-8.3,3.9-12.3c1.8-8.3-1.4-15.5-7.8-18.2c-6.2-2.7-14-0.3-18.5,5.7
			c3.3-0.8,6.7-2.3,10-2.1c8,0.6,12.9,5.5,14,12.5c1.2,7.7-2.5,14.5-9.6,17.9c-0.4,0.2-0.7,0.5-1.3,1c0.6,0.1,0.9,0.2,1.1,0.2
			c5.9-0.6,11.6-1,15.5,5.1c0.6,1,3.4,0.6,5.6,0.8C163.7,269.7,158.2,267.9,152.9,266.5z"/>
		<path fill="#FF4691" d="M63.1,196.8c-3.3,0.5-4.5-0.2-4.3-3.4c4.2-7.7,0-17.8-8.6-19.7c-8.5-1.9-15.2,1.6-20.9,7.6
			c-1.1,1.1-2.1,2.3-3.2,3.4c-9-7.9-14.3-8.9-22.1-3.6c2,0.8,3.4,1.9,4.7,1.7c5.5-0.8,9.8,1.3,13.5,5.1c1.3,1.3,2.4,2.8,3.8,4.4
			c0.4-1.5,0.7-2.7,1.1-3.9c2.4-7.2,10.3-11.4,18.6-10c8.4,1.4,13.1,6.8,13,14.9c0,0,0,0,0,0c0.4,7-6,10.2-9,15.5
			c5.5-5.5,11.8-9.2,19.6-6.6c8.2,2.7,10.7,9.4,10.4,18.5c3.6-6.6,3.4-12-0.2-17.2C75.5,197.8,69.7,195.8,63.1,196.8z"/>
		<path fill="#FF4691" d="M130.4,241.8C130.4,241.8,130.4,241.7,130.4,241.8c-0.1,0-0.2,0-0.2,0.1
			C130.3,241.8,130.4,241.8,130.4,241.8z"/>
		<path fill="#FF4691" d="M127,239.1c-0.6-7.3-5.7-12.4-13.3-13.7c-3-0.5-6.4,0.3-9.3,2c1.3-2.4,1.9-5.3,1.2-8.6
			c-0.9-4.3-4.1-7.9-8.2-9.3c-3.5-1.2-7.1-0.8-10,0.8c2.5-0.6,5.2-0.4,7.9,0.7c4.1,1.7,7.1,5.5,7.8,9.9c0.6,3.4-0.2,6.3-1.6,8.8
			c-0.8,0.8-1.5,1.7-2.1,2.7c-0.2,0.2-0.3,0.3-0.5,0.5c0.1,0,0.2-0.1,0.2-0.1c-0.1,0.1-0.1,0.2-0.2,0.3c6.8-4,13.4-5.4,19.4,0.3
			c5.5,5.2,6.2,12,5.1,17.5c1.8-2.3,4.3-5.6,6.8-8.9C127.5,243.1,127.2,241.5,127,239.1z"/>
	</g>
	<g>
		<path fill="#FF4691" d="M790.3,26.5c-3.8,19.8-9.3,36.6-19.7,51.4c-8,11.4-18.6,20.1-29.8,28.1c-0.7,0.5-2,0.5-2.8,0.3
			c-7.1-2-13.5-5.4-19.3-9.9c-8.2-6.4-14.4-14.4-18.6-24c-0.5-1.2-0.5-2,0.2-3.1c7.1-10.8,14.8-21.2,24.5-29.8
			c17-15,36.6-24.9,59.2-28.6c1.6-0.3,3.3-0.3,5-0.5c1.3-0.1,2.1,0.2,2,1.7C790.7,17.7,790.4,23.2,790.3,26.5z M767.3,54.7
			c1.4-8.7-4.2-16.4-13-17.8c-8.1-1.3-15.8,4.4-17.2,12.8c-1.4,8.4,4.1,16.2,12.4,17.6C758.2,68.7,765.9,63.3,767.3,54.7z"/>
		<path fill="#FF4691" d="M688.6,73.3c-3.2,8.9-6.2,17.5-9.3,26.2c-1.8-0.3-3.9-0.8-5.9-0.9c-3.2-0.2-5.8,1.1-8,3.5
			c-5,5.4-7,12-8.2,19c-0.1,0.4-0.1,0.8-0.2,1.1c0,0-0.1,0-0.3,0.2C655.2,107.6,657,93.7,667,82c4.6-5.4,10.4-9,17.9-9.1
			C686.2,72.9,687.5,73.2,688.6,73.3z"/>
		<path fill="#FF4691" d="M710.8,128.8c8.6-3.8,17-7.6,25.5-11.4c1.1,3.3,1.1,6.9,0.1,10.4c-2.8,9.6-9.6,15.6-18.2,19.9
			c-7.9,4-16.4,5.4-25.2,5.3c-0.4,0-0.9,0-1.3,0c-0.4,0-0.9,0-1.3,0c2.9-1,6-1.7,8.7-3.1c3.4-1.7,6.7-3.7,9.6-6.2
			c4.2-3.6,5-8.4,2.8-13.6C711.2,129.6,710.9,129.1,710.8,128.8z"/>
		<path fill="#FF4691" d="M715.2,102.1c5.7,3.1,11.3,6.2,17,9.4c-1.5,0.8-3,1.9-4.7,2.6c-6.3,2.8-12.7,5.6-19.1,8.4
			c-1.2,0.5-2,0.3-2.6-0.9c-0.8-1.4-2.5-2.8-2.5-4.1c0-1.2,1.9-2.4,2.8-3.7c2.8-3.7,5.7-7.4,8.5-11.1
			C715,102.4,715.2,102.2,715.2,102.1z"/>
		<path fill="#FF4691" d="M691,106.4c-1.5-0.9-3.1-1.8-4.7-2.8c-0.4-0.2-0.7-0.9-0.6-1.3c2-8.7,5.4-16.8,9.6-24.5
			c3.4,5.1,6.7,10.1,10,15C700.7,97.2,695.9,101.7,691,106.4z"/>
	</g>
	<g>
		<path fill="#00D2A2" d="M666.4,141.3c-1.5-1.3-3-2.5-4.5-3.6c-18.7,18.4-38.5,34.5-57.5,52c17.7-18.2,35.4-36.5,53.3-54.8
			c-9.3-5.6-19.7-8.3-31.2-8.3c-16.9,0-31.3,6-43.2,17.9c-11.9,11.9-17.9,26.3-17.9,43.2c0,16.5,5.7,30.6,17,42.3
			C609.3,198.9,638.2,171,666.4,141.3z M604.9,166.1c6-5.9,13.2-8.9,21.6-8.9c2.8,0,5.5,0.3,8,0.9l-37.5,37.5c-0.7-2.4-1-5.1-1-7.9
			C595.9,179.3,598.9,172,604.9,166.1z"/>
		<path fill="#00D2A2" d="M678.8,155.8c-7.9,8.3-15.9,16.7-24,24.5c-11,10.5-22.4,20.1-33.6,30.1c-0.6,0.5-1.1,0.9-1.7,1.4
			c-0.1-0.2-0.1-0.4-0.2-0.6c19-19.6,38-39.3,57.1-59c-1-1.3-2-2.7-3.1-4c-30.3,27.5-60.4,54.9-90.4,82.2c0.2,0.2,0.3,0.3,0.5,0.5
			c11.9,11.9,26.3,17.9,43.2,17.9c16.9,0,31.3-6,43.3-18c3.1-3.1,5.8-6.5,8-10l-25.7-16.6c-1.2,1.7-2.5,3.4-4,4.9
			c-5.9,6.1-13.2,9.1-21.7,9.1c-2.8,0-5.4-0.3-7.9-1l60.8-60.6C679.2,156.4,679,156.1,678.8,155.8z"/>
	</g>
</g>
</svg>
